<mxfile host="app.diagrams.net" modified="2023-05-21T10:36:40.290Z" agent="Mozilla/5.0 (Windows NT 10.0; Win64; x64) AppleWebKit/537.36 (KHTML, like Gecko) Chrome/113.0.0.0 Safari/537.36" version="21.3.2" etag="yGT195pKK7H2mHGYoMqr" type="github">
  <diagram name="Страница 1" id="_FxQdxy2t7oMSQJmRPjS">
    <mxGraphModel>
      <root>
        <mxCell id="0" />
        <mxCell id="1" parent="0" />
      </root>
    </mxGraphModel>
  </diagram>
</mxfile>
